<?xml version="1.0" encoding="utf-8"?>
<!-- Generator: Adobe Illustrator 26.4.1, SVG Export Plug-In . SVG Version: 6.00 Build 0)  -->
<svg version="1.1" id="Layer_1" xmlns="http://www.w3.org/2000/svg" xmlns:xlink="http://www.w3.org/1999/xlink" x="0px" y="0px"
	 width="954px" height="906.8px" viewBox="0 0 954 906.8" style="enable-background:new 0 0 954 906.8;" xml:space="preserve">
<style type="text/css">
	.st0{fill-rule:evenodd;clip-rule:evenodd;fill:#536563;}
	.st1{fill-rule:evenodd;clip-rule:evenodd;fill:#83EC92;}
</style>
<path class="st0" d="M569.5,9.4c-4.4,0.8-11.8,2.6-16.5,4.1c-4.7,1.5-13.5,5.2-19.6,8.3c-6.1,3.1-14.7,8.2-19.2,11.3
	c-4.5,3.2-11.8,9.1-16.2,13.3c-4.4,4.2-10.9,11-14.4,15.2l-6.4,7.7l5.4,8c3,4.4,8.2,13.8,11.7,21s7.5,16.4,8.9,20.5s3.5,10.9,4.6,15
	c1.1,4.1,2.7,11.5,3.6,16.5c0.9,5,2,14.2,2.5,20.5c0.5,6.6,0.6,16.9,0.1,24c-0.5,6.9-1.4,15.6-2,19.5c-0.7,3.9-2.5,12-4.1,18
	s-5.1,16-7.7,22s-7.3,15-10.4,20c-3.1,5-7.3,11.1-9.2,13.6l-3.5,4.6l11,10.4l11,10.4V327v13.6l-3.8,1c-2.1,0.5-7.6,1.7-12.2,2.5
	c-4.7,0.8-13.7,1.8-20,2.2c-6.4,0.4-17.5,0.1-25-0.5c-7.4-0.6-19.1-2.3-25.8-3.6c-6.8-1.4-17.4-4.1-23.5-6.1
	c-6.1-2-22.2-7.8-35.7-13c-13.5-5.2-32.6-12.5-42.5-16.3c-9.9-3.8-27.2-10.3-38.5-14.5c-17.2-6.4-21.9-7.8-29.4-8.5
	c-5.6-0.5-12.2-0.5-17.5,0.2c-4.7,0.6-11.9,1.9-16.1,3s-9.9,3.1-12.9,4.5c-2.9,1.4-7,4-8.9,5.7c-1.9,1.7-5,6.2-6.9,10
	c-1.8,3.8-4.1,10.3-5,14.4c-1.2,5.4-1.5,10.3-1.2,18.1c0.4,8.2,1.1,12.2,3.1,17.4c1.4,3.7,4.4,9.3,6.5,12.5c2.2,3.2,5.5,7.2,7.3,8.9
	c1.8,1.7,7.1,5.7,11.6,8.8c4.5,3.1,14.2,8.7,21.5,12.5c7.3,3.8,24,11.8,37.2,17.8c13.2,6,29.2,13.2,35.5,16
	c6.3,2.8,21.4,9.4,33.5,14.7s27.6,12.4,34.5,15.7c6.9,3.3,14.6,7.3,17.1,8.9c3.3,2.1,5.5,4.6,7.6,8.7c1.7,3.1,4,9.6,5.1,14.2
	c1.2,4.7,2.8,14.3,3.6,21.5c0.8,7.1,1.5,14.9,1.5,17.2v4.3l8.2,0.2c4.5,0.1,12.1,0.1,16.8-0.1c4.7-0.2,12.8-0.9,18-1.8
	s13.5-2.6,18.4-4c4.9-1.4,14.5-5,21.5-8c6.9-3,20.5-9.7,30.1-14.8c9.6-5.2,31.4-17.7,48.3-27.9c16.9-10.2,34-19.9,38-21.5
	c4-1.6,10.7-3.7,14.9-4.6c4.2-0.9,11.4-1.6,16-1.6c4.6,0,11.1,0.7,14.6,1.5s8.6,2.7,11.5,4.1c2.9,1.5,8,5.4,11.3,8.8
	c3.9,3.9,7.2,8.5,9.3,12.7c1.7,3.6,3.8,9.5,4.7,13c0.8,3.5,1.5,10.5,1.5,15.5c0,5-0.7,11.7-1.5,14.9c-0.8,3.2-3,8.8-4.8,12.5
	c-2.3,4.8-5.8,9.2-12.2,15.7c-5,5-13.4,12.3-18.7,16.3c-5.4,4-15,10.6-21.3,14.7c-6.4,4.1-18.2,11.3-26.3,15.9
	c-8.1,4.6-22.3,12.2-31.7,16.9s-21.7,10.5-27.5,13l-10.5,4.4L280.9,635l-247.5,0.6l-6,2.8c-3.3,1.5-7.8,4.6-10,6.9
	c-2.2,2.2-5.2,6.3-6.5,9c-2.4,5-2.4,5-2.7,111.7C8,872,8,872.6,10,878.2c1.3,3.5,3.8,7.4,6.8,10.4c2.6,2.6,6.8,5.8,9.5,7
	c2.7,1.2,7.1,2.7,9.9,3.2c3.2,0.6,166.6,1,440.8,1c290.6,0,437.5-0.3,441.1-1c2.9-0.6,7.4-2,9.9-3.2c2.5-1.2,6.3-4,8.6-6.3
	s5.2-6.3,6.5-9.1c2.4-5,2.4-5,2.4-113s0-108-2.4-113c-1.3-2.7-4.3-6.8-6.5-9.1s-6.3-5.2-9.1-6.5c-5-2.4-5-2.4-70-2.9l-65-0.5
	l-0.7-10c-0.4-5.5-1.2-21.9-1.8-36.4c-0.6-14.5-1.8-35-2.6-45.5s-2.4-27-3.5-36.6c-1.1-9.6-2.9-24-4-32c-1.1-8-3.8-23.4-6-34.3
	c-2.6-12.8-5-22.1-6.8-26.2c-1.6-3.5-4.3-8.4-6-10.9c-1.7-2.5-5.3-6.8-8-9.5l-4.9-4.9l-8.3,3.3c-4.6,1.8-12.7,4.4-18,5.8
	s-14.7,3.3-21,4.2c-8.4,1.2-15,1.5-25.8,1.1c-8.4-0.3-16.9-1.2-20.1-2.1c-3.1-0.9-8-2.6-11-4c-3-1.3-7.5-4.3-10.1-6.5
	c-2.7-2.4-5.9-6.6-7.5-9.9c-2.4-4.8-2.8-7.2-3.2-15.7c-0.3-7.2,0.1-11.9,1.3-16.5c0.9-3.6,3.3-9.5,5.2-13.3c2.1-4,7-10.5,12.2-16
	c4.7-5.1,10.9-11.2,13.6-13.7s8.1-7.4,11.8-11c3.8-3.6,9.4-9.7,12.6-13.6c3.2-3.8,8.1-10.5,11-14.9c2.9-4.3,8.1-13.8,11.6-21
	c3.5-7.2,7.9-17.9,9.8-23.8c1.9-5.9,4.4-15.1,5.5-20.6c1.1-5.5,2.5-14.6,3.2-20.4c0.7-6.2,0.9-17.1,0.6-26.9
	c-0.4-10.2-1.3-20.3-2.6-26.5c-1.1-5.5-3.1-13.9-4.5-18.6c-1.4-4.7-3.4-10.9-4.6-13.7c-1.1-2.8-3.4-8-5.2-11.4
	c-1.7-3.4-4.7-9-6.7-12.3c-2-3.3-6.1-9.4-9.3-13.5s-9.2-10.9-13.6-15c-4.3-4.1-10.9-9.6-14.6-12.3c-3.7-2.6-10-6.5-14-8.7
	c-4-2.2-9.8-4.9-12.8-6.1c-3-1.2-8.4-3-12-4s-9.7-2.3-13.7-2.9c-4-0.6-12.5-1.1-19-1C582.8,7.9,573.9,8.6,569.5,9.4 M50,695.3v5.5
	h-6c-6,0-6,0-6,4s0,4,6,4h6v6c0,6,0,6,4.5,6c4.4,0,4.4,0,4.8-5.8l0.3-5.8l6.3-0.3c6.2-0.3,6.2-0.3,6.2-4.2c0-4,0-4-6.5-4H59v-5.5
	c0-5.5,0-5.5-4.5-5.5S50,689.8,50,695.3 M819,704.7c-3,0.5-9.3,2.1-13.9,3.6c-5.1,1.7-11.4,4.7-15.8,7.6c-4,2.7-9.3,7.2-11.9,10.1
	c-2.5,2.9-6.4,8.8-8.5,13.2c-2.2,4.4-4.7,10.7-5.6,14c-0.9,3.4-1.8,11.9-2.1,19.6c-0.4,10.5-0.1,15.5,1.2,22
	c0.9,4.6,3,11.6,4.6,15.4c1.6,3.8,5.2,10,7.9,13.6c2.7,3.6,7.3,8.4,10.2,10.7c2.9,2.2,8,5.4,11.3,7.1c3.3,1.7,9.6,4.1,14,5.3
	c6.6,1.9,10.5,2.3,22.5,2.3c10.8,0,16.3-0.4,21.5-1.8c3.8-1,10.8-3.6,15.4-5.8c6.6-3.2,10-5.6,16-11.7c5.5-5.5,8.6-9.7,11.3-15.2
	c2-4.2,4.7-11.1,5.8-15.5c1.7-6.3,2.1-10.9,2.1-22.4c0-11.7-0.4-16.1-2.1-22.5c-1.2-4.4-3.8-11.3-5.8-15.4
	c-2.6-5.3-5.8-9.6-11.2-15.1c-6.1-6.1-9.3-8.5-16.1-11.7c-4.7-2.2-11.4-4.8-15-5.7s-11.9-1.8-18.5-2C829.9,704,822,704.2,819,704.7
	 M89.2,708.5c-0.4,1-11.1,32.3-23.8,69.8l-23.2,68l31,0.3c17.1,0.1,31.2,0.1,31.4-0.1c0.2-0.2,1.1-5.3,1.9-11.3
	c0.8-6,1.7-12.3,2-14.1c0.5-3.2,0.5-3.2,9.8-3.2h9.3l1.7,12.4c0.9,6.8,1.7,13.3,1.7,14.5c0,2.1,0.1,2.1,31.6,2.1
	c18.9,0,31.4-0.4,31.2-0.9c-0.2-0.5-10.9-32-23.8-70l-23.5-69.1l-28.3,0C92.2,706.8,89.9,706.9,89.2,708.5 M197,776.8v70h33.9
	c18.7,0,37.4-0.5,41.8-1.1c4.3-0.6,10.3-1.8,13.3-2.6c3-0.9,9.1-3.4,13.5-5.7c5.4-2.8,10.1-6.3,14.5-10.6c4-4,7.9-9.2,10.1-13.5
	c2-3.8,4.6-10.9,5.8-15.6c1.6-6.4,2.1-11.7,2.1-20.5c0-6.8-0.6-15.1-1.5-19.4c-0.8-4.1-3.3-11.2-5.5-15.6
	c-2.2-4.5-6.1-10.5-8.7-13.4c-2.6-2.9-8-7.4-11.9-10c-4.2-2.7-10.6-5.7-15.5-7.3c-4.6-1.4-11.9-3.1-16.2-3.6c-4.3-0.6-23.1-1-41.8-1
	H197V776.8 M376.7,720c-2.5,7.3-13.1,38.5-23.6,69.4c-10.5,30.9-19.1,56.4-19.1,56.8s14.1,0.6,31.3,0.6h31.3l1.8-14.5l1.8-14.5h9.3
	c8.9,0,9.4,0.1,9.8,2.2c0.3,1.2,1,6.3,1.6,11.2c0.6,4.9,1.3,10.5,1.7,12.2l0.6,3.2h30.9c17,0,30.9-0.4,30.9-0.9
	c0-0.5-9.9-30.1-22-65.8c-12.1-35.7-22.8-66.8-23.6-69.1l-1.6-4.2h-28.3h-28.3L376.7,720 M489,776.8v70h29.6c29.6,0,29.6,0,29.1-2.8
	c-0.3-1.5-3.1-18.8-6.3-38.5s-5.5-36-5.2-36.3c0.4-0.4,1-0.4,1.5-0.1c0.5,0.3,11.2,17.9,23.8,39.1l22.9,38.6h21.3H627v-70v-70h-28.4
	h-28.4l5.2,30.6c4.3,25.4,4.9,30.7,3.8,31.1c-0.8,0.3-1.7,0.1-2.1-0.4s-10.5-14.5-22.6-31.1l-21.9-30.2h-21.8H489V776.8 M638,776.8
	v70h26c14.3,0,26-0.3,26-0.8s-1.4-12.1-3.2-26c-1.8-13.9-3-25.4-2.8-25.6c0.2-0.2,11.2,0.2,24.4,1s24.8,1.4,25.8,1.4
	c1.6,0,1.8-1.2,1.8-13.1v-13.1l-23.2,0.7c-12.8,0.4-24.5,0.9-26,1.2c-2.7,0.5-2.8,0.5-2.8-4.6c0-5.1,0-5.1,5.2-5.1
	c2.9,0,17,0.7,31.2,1.5c14.3,0.8,27.5,1.5,29.2,1.5l3.2,0v-29.5v-29.5h-57.5H638V776.8 M114.2,779.5c-1.2,10.9-2.2,20.5-2.2,21.5
	c0,1.5,1,1.8,6.5,1.8c6.5,0,6.5,0,6-2.8c-0.3-1.5-1.4-11-2.5-21c-1.1-10-2-18.5-2-18.8c0-0.3-0.8-0.5-1.8-0.5
	C116.6,759.8,116.1,761.9,114.2,779.5 M407.6,763.5c-0.3,2.1-1.3,9.8-2.1,17.2s-1.7,15.4-2.1,17.8l-0.6,4.2h6.7h6.7l-0.6-4.2
	c-0.3-2.3-1.4-12-2.4-21.5c-1.5-14.8-2-17.2-3.5-17.2C408.7,759.8,408,760.9,407.6,763.5 M825.5,763.8c-3.3,0.4-7.9,1.5-10.3,2.5
	c-2.3,1-5.2,2.9-6.2,4.3c-1.2,1.5-2,4-2,6.2c0,2,0.7,4.6,1.6,5.9c0.9,1.2,3.3,3.1,5.5,4.2c2.2,1.1,7.3,2.4,11.4,3
	c4.7,0.6,10.3,0.6,15,0c4.1-0.5,9.2-1.8,11.2-2.9c2.1-1.1,4.7-2.9,5.7-4.1c1.2-1.4,2-3.6,2-6s-0.7-4.6-2-6c-1.1-1.2-3.7-3.1-5.7-4.1
	c-2.1-1.1-7-2.3-11-2.9c-4-0.5-7.7-0.9-8.2-0.8C831.9,763,828.8,763.4,825.5,763.8 M243,776.9V788l16.2-0.5
	c11.5-0.3,17.3-0.9,19.8-2c2-0.8,4.6-2.8,5.8-4.3s2.2-3.6,2.2-4.7c0-1.1-1.5-3.4-3.3-5.2c-2.3-2.3-4.9-3.6-8.5-4.4
	c-2.9-0.6-11.3-1.1-18.7-1.1H243V776.9"/>
<path class="st1" d="M349,0.8c-4.7,0.5-11.9,1.9-16,3C328.9,5,321.9,7.3,317.5,9c-4.4,1.7-10.5,4.5-13.5,6.1s-9.5,5.7-14.3,8.9
	c-4.8,3.2-12.5,9.6-17,14.1c-4.5,4.5-10.3,10.9-12.8,14.2s-6.9,9.7-9.7,14.2c-2.8,4.5-7.1,12.6-9.5,18c-2.4,5.4-5.3,12.7-6.4,16.3
	c-1.1,3.6-3,9.9-4.1,14c-1.1,4.1-2.8,12.5-3.8,18.5c-1.2,7.2-1.8,16.6-1.8,27.5c0,10.9,0.6,20.2,1.8,27.5c1,6,2.8,15.3,4.2,20.6
	s4,14.3,6,20c2,5.7,5.9,15.1,8.7,20.9c2.8,5.8,8.3,15.3,12.2,21.1l7.1,10.6l-7-2.6c-6.5-2.4-8.4-2.6-22.5-2.6
	c-12.9,0-17,0.4-24.5,2.3c-5,1.3-12.3,3.8-16.4,5.7c-4.1,1.9-9.4,5.1-11.9,7.1c-3.3,2.7-5.5,5.8-8.2,11.7
	c-2.1,4.4-4.6,11.2-5.6,15.1c-1.2,4.7-1.8,10.7-1.9,18c0,8.8,0.4,12.5,2.3,18.5c1.3,4.1,3.5,9.7,4.9,12.5c1.4,2.7,4.3,7.4,6.4,10.3
	c2.2,2.9,6.1,7,8.7,9.1l4.8,3.8l-2.9,3.4c-1.6,1.9-4.7,6.5-6.9,10.1c-2.3,3.8-5.1,10.5-6.4,15.5c-1.3,4.8-3.8,15.8-5.4,24.3
	c-1.6,8.5-3.9,21.3-4.9,28.5c-1.1,7.2-2.9,21.1-4,31c-1.1,9.9-2.7,26.1-3.5,36c-0.8,9.9-1.9,25.9-2.5,35.5s-1.3,25.5-1.7,35.2
	l-0.7,17.7L93.1,628l-61.6,0.3l-7.5,3.7c-4.1,2-9.2,5.3-11.3,7.3c-2.1,2-4.8,5.4-6.2,7.5c-1.3,2.1-3.3,6.6-4.5,10.1
	C0,663,0,664.7,0,767.7C0,872.3,0,872.3,2.4,879c1.3,3.7,4,8.9,6,11.5s5.8,6.2,8.5,8.1c2.7,1.8,7.9,4.4,11.5,5.7
	c6.6,2.4,6.6,2.4,448.5,2.4c427.1,0,442.1-0.1,447.8-1.8c3.3-1,8.4-3.5,11.3-5.5c3-2,6.6-5.1,8-6.9c1.4-1.8,3.6-5.3,4.9-7.8
	c1.3-2.5,2.9-6.7,3.6-9.5c1.1-4,1.3-25.3,1.3-108.1c0-91.9-0.2-103.7-1.6-108.5c-0.9-3-2.6-7.5-3.9-10s-4.2-6.4-6.4-8.7
	c-2.3-2.3-6-5.3-8.4-6.6c-2.3-1.4-7-3.2-10.3-4.1c-5.2-1.4-14.5-1.6-65.1-1.6h-59l-0.7-20.8c-0.4-11.4-1.4-31.1-2.2-43.8
	c-0.8-12.7-2.4-32.2-3.5-43.5c-1.1-11.3-3.4-30-5-41.5c-1.6-11.5-4.6-28.9-6.5-38.5c-1.9-9.6-4.2-19.8-5.1-22.5
	c-0.9-2.8-2.7-7.1-3.9-9.7c-1.3-2.6-4.6-7.6-7.3-11.2c-5-6.6-5-6.6-2.1-8.1c1.6-0.8,5.3-4.1,8.2-7.4s7.1-9.1,9.1-12.9
	c2.1-3.8,4.7-10.5,5.8-14.8c1.3-5,2-11.1,2-17c0-6.5-0.7-12.1-2.4-18.8c-1.3-5.3-3.9-12.4-5.7-15.7c-1.8-3.3-5.3-7.9-7.8-10
	s-7.7-5.5-11.6-7.3c-3.9-1.8-11.1-4.4-16.1-5.7c-7.7-2-11.3-2.4-24.5-2.3c-14.2,0-16.1,0.3-22.8,2.7c-7.3,2.7-7.3,2.7-5.8,0.4
	c0.8-1.3,4.1-6.2,7.2-11c3.1-4.8,8.1-13.8,11-19.9c2.9-6.2,6.7-15.2,8.4-20.1c1.7-4.9,4.2-13.2,5.6-18.5c1.3-5.3,3.1-13.9,4-19.1
	c0.8-5.2,1.8-15.8,2.2-23.5c0.4-8.3,0.2-18-0.5-24c-0.6-5.5-2.1-14.5-3.2-20c-1.1-5.5-3.6-14.9-5.6-21c-2-6.1-5.3-14.8-7.4-19.3
	c-2.1-4.5-6.1-12-8.8-16.5c-2.7-4.5-8-11.9-11.6-16.5c-3.6-4.5-10-11.3-14.1-15c-4.1-3.7-9.6-8.2-12.2-10.1
	c-2.6-1.9-7.8-5.2-11.6-7.4c-3.8-2.2-11-5.8-16-7.8c-5-2.1-12.7-4.7-17.1-5.8s-12.5-2.5-18-3.2c-5.9-0.7-14.1-0.9-20-0.5
	c-5.5,0.4-13.9,1.5-18.6,2.5c-4.7,1-12.1,3-16.4,4.5c-4.3,1.4-12.4,4.9-18,7.6c-5.6,2.7-14.8,8.2-20.6,12.1
	c-6.3,4.3-14.8,11.6-21.6,18.4l-11.2,11.2l-10.8-10.7c-5.9-5.9-14.6-13.4-19.3-16.8c-4.7-3.3-11.8-8-15.8-10.3s-10.4-5.5-14.2-7.1
	c-3.8-1.6-10.4-4.1-14.7-5.4c-4.3-1.4-11-3.1-14.9-4c-3.9-0.8-12.2-1.7-18.5-2C362.6,0.1,353.7,0.3,349,0.8 M569.5,9.4
	c-4.4,0.8-11.8,2.6-16.5,4.1c-4.7,1.5-13.5,5.2-19.6,8.3c-6.1,3.1-14.7,8.2-19.2,11.3c-4.5,3.2-11.8,9.1-16.2,13.3
	c-4.4,4.2-10.9,11-14.4,15.2l-6.4,7.7l5.4,8c3,4.4,8.2,13.8,11.7,21s7.5,16.4,8.9,20.5s3.5,10.9,4.6,15c1.1,4.1,2.7,11.5,3.6,16.5
	c0.9,5,2,14.2,2.5,20.5c0.5,6.6,0.6,16.9,0.1,24c-0.5,6.9-1.4,15.6-2,19.5c-0.7,3.9-2.5,12-4.1,18s-5.1,16-7.7,22s-7.3,15-10.4,20
	c-3.1,5-7.3,11.1-9.2,13.6l-3.5,4.6l11,10.4l11,10.4V327v13.6l-3.8,1c-2.1,0.5-7.6,1.7-12.2,2.5c-4.7,0.8-13.7,1.8-20,2.2
	c-6.4,0.4-17.5,0.1-25-0.5c-7.4-0.6-19.1-2.3-25.8-3.6c-6.8-1.4-17.4-4.1-23.5-6.1c-6.1-2-22.2-7.8-35.7-13
	c-13.5-5.2-32.6-12.5-42.5-16.3c-9.9-3.8-27.2-10.3-38.5-14.5c-17.2-6.4-21.9-7.8-29.4-8.5c-5.6-0.5-12.2-0.5-17.5,0.2
	c-4.7,0.6-11.9,1.9-16.1,3s-9.9,3.1-12.9,4.5c-2.9,1.4-7,4-8.9,5.7c-1.9,1.7-5,6.2-6.9,10c-1.8,3.8-4.1,10.3-5,14.4
	c-1.2,5.4-1.5,10.3-1.2,18.1c0.4,8.2,1.1,12.2,3.1,17.4c1.4,3.7,4.4,9.3,6.5,12.5c2.2,3.2,5.5,7.2,7.3,8.9c1.8,1.7,7.1,5.7,11.6,8.8
	c4.5,3.1,14.2,8.7,21.5,12.5c7.3,3.8,24,11.8,37.2,17.8c13.2,6,29.2,13.2,35.5,16c6.3,2.8,21.4,9.4,33.5,14.7s27.6,12.4,34.5,15.7
	c6.9,3.3,14.6,7.3,17.1,8.9c3.3,2.1,5.5,4.6,7.6,8.7c1.7,3.1,4,9.6,5.1,14.2c1.2,4.7,2.8,14.3,3.6,21.5c0.8,7.1,1.5,14.9,1.5,17.2
	v4.3l8.2,0.2c4.5,0.1,12.1,0.1,16.8-0.1c4.7-0.2,12.8-0.9,18-1.8s13.5-2.6,18.4-4c4.9-1.4,14.5-5,21.5-8c6.9-3,20.5-9.7,30.1-14.8
	c9.6-5.2,31.4-17.7,48.3-27.9c16.9-10.2,34-19.9,38-21.5c4-1.6,10.7-3.7,14.9-4.6c4.2-0.9,11.4-1.6,16-1.6c4.6,0,11.1,0.7,14.6,1.5
	s8.6,2.7,11.5,4.1c2.9,1.5,8,5.4,11.3,8.8c3.9,3.9,7.2,8.5,9.3,12.7c1.7,3.6,3.8,9.5,4.7,13c0.8,3.5,1.5,10.5,1.5,15.5
	c0,5-0.7,11.7-1.5,14.9c-0.8,3.2-3,8.8-4.8,12.5c-2.3,4.8-5.8,9.2-12.2,15.7c-5,5-13.4,12.3-18.7,16.3c-5.4,4-15,10.6-21.3,14.7
	c-6.4,4.1-18.2,11.3-26.3,15.9c-8.1,4.6-22.3,12.2-31.7,16.9s-21.7,10.5-27.5,13l-10.5,4.4L280.9,635l-247.5,0.6l-6,2.8
	c-3.3,1.5-7.8,4.6-10,6.9c-2.2,2.2-5.2,6.3-6.5,9c-2.4,5-2.4,5-2.7,111.7C8,872,8,872.6,10,878.2c1.3,3.5,3.8,7.4,6.8,10.4
	c2.6,2.6,6.8,5.8,9.5,7c2.7,1.2,7.1,2.7,9.9,3.2c3.2,0.6,166.6,1,440.8,1c290.6,0,437.5-0.3,441.1-1c2.9-0.6,7.4-2,9.9-3.2
	c2.5-1.2,6.3-4,8.6-6.3s5.2-6.3,6.5-9.1c2.4-5,2.4-5,2.4-113s0-108-2.4-113c-1.3-2.7-4.3-6.8-6.5-9.1s-6.3-5.2-9.1-6.5
	c-5-2.4-5-2.4-70-2.9l-65-0.5l-0.7-10c-0.4-5.5-1.2-21.9-1.8-36.4c-0.6-14.5-1.8-35-2.6-45.5s-2.4-27-3.5-36.6c-1.1-9.6-2.9-24-4-32
	c-1.1-8-3.8-23.4-6-34.3c-2.6-12.8-5-22.1-6.8-26.2c-1.6-3.5-4.3-8.4-6-10.9c-1.7-2.5-5.3-6.8-8-9.5l-4.9-4.9l-8.3,3.3
	c-4.6,1.8-12.7,4.4-18,5.8s-14.7,3.3-21,4.2c-8.4,1.2-15,1.5-25.8,1.1c-8.4-0.3-16.9-1.2-20.1-2.1c-3.1-0.9-8-2.6-11-4
	c-3-1.3-7.5-4.3-10.1-6.5c-2.7-2.4-5.9-6.6-7.5-9.9c-2.4-4.8-2.8-7.2-3.2-15.7c-0.3-7.2,0.1-11.9,1.3-16.5c0.9-3.6,3.3-9.5,5.2-13.3
	c2.1-4,7-10.5,12.2-16c4.7-5.1,10.9-11.2,13.6-13.7s8.1-7.4,11.8-11c3.8-3.6,9.4-9.7,12.6-13.6c3.2-3.8,8.1-10.5,11-14.9
	c2.9-4.3,8.1-13.8,11.6-21c3.5-7.2,7.9-17.9,9.8-23.8c1.9-5.9,4.4-15.1,5.5-20.6c1.1-5.5,2.5-14.6,3.2-20.4
	c0.7-6.2,0.9-17.1,0.6-26.9c-0.4-10.2-1.3-20.3-2.6-26.5c-1.1-5.5-3.1-13.9-4.5-18.6c-1.4-4.7-3.4-10.9-4.6-13.7
	c-1.1-2.8-3.4-8-5.2-11.4c-1.7-3.4-4.7-9-6.7-12.3c-2-3.3-6.1-9.4-9.3-13.5s-9.2-10.9-13.6-15c-4.3-4.1-10.9-9.6-14.6-12.3
	c-3.7-2.6-10-6.5-14-8.7c-4-2.2-9.8-4.9-12.8-6.1c-3-1.2-8.4-3-12-4s-9.7-2.3-13.7-2.9c-4-0.6-12.5-1.1-19-1
	C582.8,7.9,573.9,8.6,569.5,9.4 M469.7,310l-6.8,6.2l0.3,10l0.3,10l6.6,0.8c4.6,0.6,8.7,0.4,13.5-0.5l6.9-1.3l0.3-9.6l0.3-9.6
	l-6.9-6.1c-3.8-3.4-7.1-6.1-7.3-6.1C476.6,303.8,473.4,306.6,469.7,310 M50,695.3v5.5h-6c-6,0-6,0-6,4s0,4,6,4h6v6c0,6,0,6,4.5,6
	c4.4,0,4.4,0,4.8-5.8l0.3-5.8l6.3-0.3c6.2-0.3,6.2-0.3,6.2-4.2c0-4,0-4-6.5-4H59v-5.5c0-5.5,0-5.5-4.5-5.5S50,689.8,50,695.3
	 M819,704.7c-3,0.5-9.3,2.1-13.9,3.6c-5.1,1.7-11.4,4.7-15.8,7.6c-4,2.7-9.3,7.2-11.9,10.1c-2.5,2.9-6.4,8.8-8.5,13.2
	c-2.2,4.4-4.7,10.7-5.6,14c-0.9,3.4-1.8,11.9-2.1,19.6c-0.4,10.5-0.1,15.5,1.2,22c0.9,4.6,3,11.6,4.6,15.4c1.6,3.8,5.2,10,7.9,13.6
	c2.7,3.6,7.3,8.4,10.2,10.7c2.9,2.2,8,5.4,11.3,7.1c3.3,1.7,9.6,4.1,14,5.3c6.6,1.9,10.5,2.3,22.5,2.3c10.8,0,16.3-0.4,21.5-1.8
	c3.8-1,10.8-3.6,15.4-5.8c6.6-3.2,10-5.6,16-11.7c5.5-5.5,8.6-9.7,11.3-15.2c2-4.2,4.7-11.1,5.8-15.5c1.7-6.3,2.1-10.9,2.1-22.4
	c0-11.7-0.4-16.1-2.1-22.5c-1.2-4.4-3.8-11.3-5.8-15.4c-2.6-5.3-5.8-9.6-11.2-15.1c-6.1-6.1-9.3-8.5-16.1-11.7
	c-4.7-2.2-11.4-4.8-15-5.7s-11.9-1.8-18.5-2C829.9,704,822,704.2,819,704.7 M89.2,708.5c-0.4,1-11.1,32.3-23.8,69.8l-23.2,68l31,0.3
	c17.1,0.1,31.2,0.1,31.4-0.1c0.2-0.2,1.1-5.3,1.9-11.3c0.8-6,1.7-12.3,2-14.1c0.5-3.2,0.5-3.2,9.8-3.2h9.3l1.7,12.4
	c0.9,6.8,1.7,13.3,1.7,14.5c0,2.1,0.1,2.1,31.6,2.1c18.9,0,31.4-0.4,31.2-0.9c-0.2-0.5-10.9-32-23.8-70l-23.5-69.1l-28.3,0
	C92.2,706.8,89.9,706.9,89.2,708.5 M197,776.8v70h33.9c18.7,0,37.4-0.5,41.8-1.1c4.3-0.6,10.3-1.8,13.3-2.6c3-0.9,9.1-3.4,13.5-5.7
	c5.4-2.8,10.1-6.3,14.5-10.6c4-4,7.9-9.2,10.1-13.5c2-3.8,4.6-10.9,5.8-15.6c1.6-6.4,2.1-11.7,2.1-20.5c0-6.8-0.6-15.1-1.5-19.4
	c-0.8-4.1-3.3-11.2-5.5-15.6c-2.2-4.5-6.1-10.5-8.7-13.4c-2.6-2.9-8-7.4-11.9-10c-4.2-2.7-10.6-5.7-15.5-7.3
	c-4.6-1.4-11.9-3.1-16.2-3.6c-4.3-0.6-23.1-1-41.8-1H197V776.8 M376.7,720c-2.5,7.3-13.1,38.5-23.6,69.4
	c-10.5,30.9-19.1,56.4-19.1,56.8s14.1,0.6,31.3,0.6h31.3l1.8-14.5l1.8-14.5h9.3c8.9,0,9.4,0.1,9.8,2.2c0.3,1.2,1,6.3,1.6,11.2
	c0.6,4.9,1.3,10.5,1.7,12.2l0.6,3.2h30.9c17,0,30.9-0.4,30.9-0.9c0-0.5-9.9-30.1-22-65.8c-12.1-35.7-22.8-66.8-23.6-69.1l-1.6-4.2
	h-28.3h-28.3L376.7,720 M489,776.8v70h29.6c29.6,0,29.6,0,29.1-2.8c-0.3-1.5-3.1-18.8-6.3-38.5s-5.5-36-5.2-36.3
	c0.4-0.4,1-0.4,1.5-0.1c0.5,0.3,11.2,17.9,23.8,39.1l22.9,38.6h21.3H627v-70v-70h-28.4h-28.4l5.2,30.6c4.3,25.4,4.9,30.7,3.8,31.1
	c-0.8,0.3-1.7,0.1-2.1-0.4s-10.5-14.5-22.6-31.1l-21.9-30.2h-21.8H489V776.8 M638,776.8v70h26c14.3,0,26-0.3,26-0.8
	s-1.4-12.1-3.2-26c-1.8-13.9-3-25.4-2.8-25.6c0.2-0.2,11.2,0.2,24.4,1s24.8,1.4,25.8,1.4c1.6,0,1.8-1.2,1.8-13.1v-13.1l-23.2,0.7
	c-12.8,0.4-24.5,0.9-26,1.2c-2.7,0.5-2.8,0.5-2.8-4.6c0-5.1,0-5.1,5.2-5.1c2.9,0,17,0.7,31.2,1.5c14.3,0.8,27.5,1.5,29.2,1.5l3.2,0
	v-29.5v-29.5h-57.5H638V776.8 M114.2,779.5c-1.2,10.9-2.2,20.5-2.2,21.5c0,1.5,1,1.8,6.5,1.8c6.5,0,6.5,0,6-2.8
	c-0.3-1.5-1.4-11-2.5-21c-1.1-10-2-18.5-2-18.8c0-0.3-0.8-0.5-1.8-0.5C116.6,759.8,116.1,761.9,114.2,779.5 M407.6,763.5
	c-0.3,2.1-1.3,9.8-2.1,17.2s-1.7,15.4-2.1,17.8l-0.6,4.2h6.7h6.7l-0.6-4.2c-0.3-2.3-1.4-12-2.4-21.5c-1.5-14.8-2-17.2-3.5-17.2
	C408.7,759.8,408,760.9,407.6,763.5 M825.5,763.8c-3.3,0.4-7.9,1.5-10.3,2.5c-2.3,1-5.2,2.9-6.2,4.3c-1.2,1.5-2,4-2,6.2
	c0,2,0.7,4.6,1.6,5.9c0.9,1.2,3.3,3.1,5.5,4.2c2.2,1.1,7.3,2.4,11.4,3c4.7,0.6,10.3,0.6,15,0c4.1-0.5,9.2-1.8,11.2-2.9
	c2.1-1.1,4.7-2.9,5.7-4.1c1.2-1.4,2-3.6,2-6s-0.7-4.6-2-6c-1.1-1.2-3.7-3.1-5.7-4.1c-2.1-1.1-7-2.3-11-2.9c-4-0.5-7.7-0.9-8.2-0.8
	C831.9,763,828.8,763.4,825.5,763.8 M243,776.9V788l16.2-0.5c11.5-0.3,17.3-0.9,19.8-2c2-0.8,4.6-2.8,5.8-4.3s2.2-3.6,2.2-4.7
	c0-1.1-1.5-3.4-3.3-5.2c-2.3-2.3-4.9-3.6-8.5-4.4c-2.9-0.6-11.3-1.1-18.7-1.1H243V776.9"/>
</svg>
